<?xml version="1.0" standalone="no"?>
<!DOCTYPE svg PUBLIC "-//W3C//DTD SVG 20010904//EN"
 "http://www.w3.org/TR/2001/REC-SVG-20010904/DTD/svg10.dtd">
<svg version="1.0" xmlns="http://www.w3.org/2000/svg"
 width="1024.000000pt" height="1024.000000pt" viewBox="0 0 1024.000000 1024.000000"
 preserveAspectRatio="xMidYMid meet">

<g transform="translate(0.000000,1024.000000) scale(0.100000,-0.100000)"
fill="#000000" stroke="none">
<path d="M4752 6138 c-13 -13 -17 -135 -6 -175 6 -22 10 -23 183 -25 l176 -3
3 -76 3 -77 -50 -35 c-54 -39 -92 -89 -140 -184 l-31 -63 -620 0 c-407 0 -620
3 -620 10 0 6 -13 10 -30 10 l-30 0 -2 -352 -3 -353 -59 -3 -58 -3 4 -114 c2
-63 6 -117 9 -119 2 -2 66 -6 141 -8 l138 -3 0 -27 0 -28 -159 0 -159 0 -12
49 c-6 27 -19 56 -28 64 -61 55 -562 96 -761 64 -52 -9 -97 -20 -100 -25 -4
-6 -42 -6 -101 -1 -165 16 -341 -6 -439 -56 -78 -39 -122 -109 -165 -261 -68
-239 -113 -648 -123 -1110 -6 -316 4 -506 38 -676 10 -53 19 -105 19 -116 0
-11 10 -39 23 -63 26 -50 112 -110 193 -136 30 -9 54 -19 54 -23 0 -3 -44 -12
-98 -18 -135 -17 -172 -28 -172 -52 0 -21 -1 -21 120 -45 88 -18 555 -34 1001
-35 255 0 298 -2 303 -15 3 -8 11 -15 18 -15 9 0 9 3 -2 11 -13 9 88 9 385 -2
11 -1 200 -10 420 -20 1101 -52 1198 -52 2245 1 691 34 862 40 1270 40 585 0
904 20 943 59 15 15 -9 39 -52 50 -20 5 -81 15 -136 21 -134 15 -140 19 -70
41 33 10 85 33 115 51 44 27 61 44 83 89 64 127 88 351 88 798 -2 627 -63
1136 -158 1312 -31 57 -102 113 -179 139 -78 27 -270 43 -366 30 -299 -40
-523 -85 -557 -113 -12 -10 -13 -9 -6 2 9 15 1 12 -45 -19 -14 -10 -31 -15
-37 -13 -7 3 -13 -2 -13 -11 0 -19 -19 -22 -24 -3 -16 62 -26 111 -22 114 12
13 358 43 494 43 144 1 152 2 152 21 0 18 -8 19 -129 19 -118 0 -313 -16 -467
-39 -99 -15 -122 -33 -132 -108 -6 -41 -10 -48 -30 -47 -12 0 -103 1 -202 2
l-180 2 0 25 0 25 128 0 c70 0 133 4 141 9 12 8 15 64 18 318 2 169 1 381 -3
471 -6 160 -6 162 -29 162 -13 0 -25 -6 -28 -12 -3 -10 -143 -12 -661 -10
l-657 2 -25 58 c-33 74 -94 155 -146 192 l-41 30 2 72 c2 42 7 76 14 80 7 4
85 8 174 8 189 0 176 -10 171 125 l-3 80 -445 3 c-338 2 -449 -1 -458 -10z
m868 -27 c0 -18 -106 -22 -474 -19 -284 2 -370 6 -374 16 -3 9 86 12 422 12
255 0 426 -4 426 -9z m-480 -372 c-14 -11 -40 -33 -58 -47 -35 -29 -105 -124
-115 -157 -3 -11 -18 -51 -31 -90 -14 -38 -26 -80 -26 -93 0 -21 -24 -41 -36
-29 -8 8 53 182 88 251 16 32 41 75 56 94 34 45 99 92 126 92 20 -1 20 -2 -4
-21z m271 -429 c216 -21 412 -66 604 -138 249 -93 317 -156 314 -292 -1 -25
-5 -56 -9 -70 -7 -21 -8 -18 -9 18 -3 114 -73 187 -258 270 -212 95 -480 151
-770 159 -293 9 -558 -30 -816 -118 -265 -91 -359 -167 -377 -307 l-7 -57 -2
80 c-1 108 11 145 63 193 128 118 489 228 866 265 81 8 305 6 401 -3z m892
-127 c-13 -2 -33 -2 -45 0 -13 2 -3 4 22 4 25 0 35 -2 23 -4z m-2428 -78 c94
-8 194 -15 224 -15 53 0 54 0 36 -20 -21 -23 -70 -25 -260 -10 -208 17 -225
20 -225 41 0 23 2 23 225 4z m2948 -4 c4 -17 -6 -20 -97 -30 -173 -20 -410
-26 -445 -11 -17 7 -31 16 -31 20 0 4 75 10 168 14 92 4 199 11 237 15 130 15
162 13 168 -8z m-1953 -100 c-12 -43 -28 -69 -50 -81 -16 -8 -20 -8 -20 4 0 8
5 18 10 21 6 3 10 24 10 45 0 32 4 39 23 42 32 6 36 1 27 -31z m696 31 c6 -4
13 -23 17 -42 3 -19 9 -43 13 -54 5 -13 3 -17 -6 -14 -36 12 -80 118 -49 118
8 0 19 -4 25 -8z m214 -38 c171 -40 340 -106 340 -134 0 -4 -30 -13 -67 -19
-111 -19 -162 -41 -201 -88 -38 -45 -71 -59 -101 -43 -30 16 -78 111 -106 209
-31 110 -31 113 -2 106 12 -2 74 -16 137 -31z m-1020 -59 c-14 -66 -26 -98
-61 -149 -39 -59 -47 -65 -78 -66 -25 0 -40 7 -57 28 -13 15 -24 30 -24 33 0
19 -167 69 -231 69 -97 0 73 83 276 134 130 32 135 33 166 35 l26 1 -17 -85z
m539 54 c139 -22 267 -98 329 -193 61 -93 80 -145 66 -180 -7 -19 -51 -22 -51
-3 0 14 -53 128 -80 171 -10 17 -29 40 -43 53 -14 12 -20 23 -13 23 6 0 34
-26 62 -57 50 -57 65 -59 37 -5 -29 55 -109 114 -210 153 -82 33 -329 26 -332
-9 -1 -7 -2 -15 -3 -20 0 -4 -28 -16 -61 -26 -56 -18 -61 -22 -77 -64 -10 -27
-17 -75 -17 -123 -1 -67 -4 -79 -18 -79 -9 0 -24 -3 -33 -6 -14 -6 -16 3 -14
80 2 47 6 86 10 86 4 0 10 7 13 16 6 15 4 15 -11 3 -56 -44 -56 -45 -39 -81
16 -36 17 -88 1 -88 -5 0 -3 -5 5 -10 12 -8 12 -10 -5 -10 -11 0 -43 -3 -70
-6 l-51 -6 -2 41 c-4 54 28 118 92 188 114 125 316 185 515 152z m-1377 -95
c121 -6 127 -7 132 -29 3 -13 3 -37 0 -54 -6 -26 -8 -28 -21 -16 -12 12 -50
15 -195 15 -160 0 -179 2 -174 16 3 9 6 31 6 49 l0 34 63 -4 c34 -3 119 -8
189 -11z m2886 -36 l-3 -43 -233 -3 -233 -2 3 37 3 38 125 5 c69 3 174 7 233
8 l108 2 -3 -42z m-1818 2 c0 -5 -5 -10 -11 -10 -5 0 -7 5 -4 10 3 6 8 10 11
10 2 0 4 -4 4 -10z m-597 -54 c109 -21 115 -26 110 -100 -10 -162 -31 -203
-32 -60 0 47 -5 92 -11 99 -12 14 -132 54 -174 57 -14 1 -26 6 -26 10 0 12 50
10 133 -6z m1747 6 c0 -4 -30 -16 -67 -25 -38 -10 -83 -25 -102 -33 l-34 -14
7 -68 c4 -37 9 -83 12 -103 6 -35 5 -36 -20 -32 -31 6 -34 16 -39 132 -5 97 5
115 70 127 21 3 54 10 73 14 47 11 100 12 100 2z m-2142 -44 c3 -17 -14 -18
-247 -18 -203 0 -251 3 -251 13 0 8 3 17 7 21 4 3 115 5 247 4 220 -3 241 -5
244 -20z m2852 0 l0 -23 -245 0 -245 0 0 23 0 22 245 0 245 0 0 -22z m-2782
-213 l-3 -100 -92 -3 c-90 -3 -93 -2 -98 21 -4 13 -5 39 -3 58 l3 34 85 5 85
5 4 100 4 100 9 -60 c4 -33 7 -105 6 -160z m-916 89 c86 -10 162 -20 168 -24
9 -6 7 -22 -7 -64 -20 -61 -29 -69 -39 -32 -6 26 1 24 -164 30 -67 2 -128 11
-170 24 -36 11 -112 27 -170 37 -58 9 -116 19 -130 22 -23 5 -24 6 -5 13 35
15 355 11 517 -6z m1985 -151 c-4 -90 -11 -151 -18 -157 -9 -8 -10 12 -5 83 3
52 6 123 6 158 0 41 4 63 12 63 8 0 9 -39 5 -147z m-2467 93 c106 -18 243 -46
247 -50 1 -1 -6 -33 -16 -72 -11 -38 -22 -82 -27 -99 -7 -29 -7 -30 -13 -6
-12 46 -111 83 -222 83 -44 0 -79 4 -79 8 0 4 -12 13 -27 20 -28 12 -78 13
-279 5 -60 -3 -113 -5 -117 -5 -5 0 -3 -7 4 -17 13 -15 12 -15 -7 -5 -17 9
-26 6 -57 -19 -47 -39 -85 -118 -118 -248 -24 -93 -28 -100 -28 -61 -2 124 60
387 103 437 37 43 106 53 336 49 124 -3 243 -11 300 -20z m5477 -5 c49 -22 52
-25 72 -89 11 -37 27 -114 35 -172 16 -111 29 -259 20 -225 -3 11 -16 64 -30
117 -35 142 -72 215 -101 204 -8 -3 -11 -2 -8 4 6 10 -31 33 -43 26 -5 -3 -21
6 -37 20 -15 13 -33 24 -39 24 -7 0 -6 -3 1 -8 11 -7 -68 -13 -447 -38 -56 -3
-71 -8 -150 -48 -42 -22 -45 -26 -50 -72 l-6 -49 -10 40 c-6 22 -16 72 -23
110 -6 39 -13 80 -17 91 -5 20 1 23 83 38 86 16 272 41 363 49 25 3 110 4 190
3 126 -2 152 -6 197 -25z m-3047 -53 c0 -36 -3 -48 -9 -39 -12 19 -19 20 -211
26 -91 4 -183 8 -205 10 -22 2 -47 4 -55 5 -8 1 -4 6 10 11 33 14 261 36 378
38 l92 1 0 -52z m470 28 c52 -9 100 -16 105 -17 6 -1 -4 -4 -21 -9 -18 -4
-108 -8 -200 -9 -96 -1 -183 -7 -201 -13 -24 -9 -38 -9 -57 0 -22 10 -25 9
-29 -11 -2 -12 -5 2 -6 32 l-1 54 158 -6 c86 -4 200 -13 252 -21z m891 4 c27
0 28 -2 23 -32 -14 -84 -6 -78 -94 -78 l-80 0 0 61 0 62 61 -7 c34 -3 75 -6
90 -6z m-3064 -37 c-3 -10 -5 -4 -5 12 0 17 2 24 5 18 2 -7 2 -21 0 -30z
m2463 -7 c41 -8 122 -31 180 -53 58 -22 122 -43 142 -47 51 -9 64 -31 15 -23
-20 3 -39 1 -42 -4 -4 -5 -13 -9 -22 -9 -9 0 -13 3 -9 7 10 11 -191 103 -224
103 -88 0 -188 -97 -240 -232 -17 -43 -30 -80 -30 -83 0 -16 23 11 44 53 26
49 110 154 118 146 3 -2 11 2 18 11 7 8 16 15 21 15 4 0 -16 -24 -44 -52 -63
-64 -109 -148 -136 -248 -22 -84 -54 -329 -71 -550 -23 -289 -29 -328 -24
-145 4 158 17 349 29 455 4 32 3 40 -5 29 -18 -30 -58 -333 -89 -674 -10 -102
-15 -123 -32 -137 -35 -29 -52 -23 -46 15 4 17 15 120 27 227 29 275 58 509
76 623 9 54 13 105 10 114 -4 9 -2 20 5 23 6 4 19 52 29 106 30 165 53 217
134 302 45 47 52 48 166 28z m-1327 -23 c79 -55 118 -138 143 -307 10 -64 21
-116 25 -116 4 0 5 -15 3 -32 -3 -18 4 -246 15 -507 11 -261 19 -477 16 -479
-11 -11 -63 13 -83 38 -22 28 -22 36 -32 421 -14 511 -34 651 -111 774 -43 70
-68 95 -114 117 -35 17 -36 18 -10 13 17 -3 40 -13 51 -20 32 -21 88 -93 120
-154 36 -70 42 -52 10 31 -43 115 -104 191 -164 204 -64 13 -69 21 -22 32 78
17 111 14 153 -15z m-1348 -63 c-44 -21 -87 -46 -96 -56 -10 -11 -19 -45 -22
-81 -3 -34 -9 -68 -13 -75 -4 -7 -7 -29 -6 -48 2 -23 0 -31 -6 -22 -7 10 -11
5 -16 -18 -7 -38 2 -82 16 -74 5 3 8 -18 6 -53 -3 -56 -4 -58 -30 -58 -24 1
-28 -4 -37 -45 -13 -54 -41 -300 -41 -353 0 -21 -3 -36 -8 -33 -14 8 16 458
43 641 34 235 46 280 71 280 10 1 44 6 74 13 47 10 93 16 135 20 6 0 -26 -17
-70 -38z m1029 3 c-74 -21 -100 -26 -93 -19 10 11 124 44 133 38 5 -3 -13 -11
-40 -19z m2962 11 c42 -6 42 -6 53 -63 51 -272 95 -1092 62 -1171 -9 -20 -11
-7 -10 65 0 50 -4 140 -10 200 -6 61 -15 173 -21 250 -12 141 -29 251 -37 228
-3 -7 -11 -13 -19 -13 -11 0 -14 17 -13 83 1 66 3 75 10 47 27 -119 37 -124
18 -11 -6 36 -16 72 -22 79 -11 14 -14 181 -3 228 6 29 5 31 -49 53 -66 27
-83 47 -34 38 19 -4 53 -9 75 -13z m-2837 -18 c-10 -9 -79 -14 -74 -5 4 5 22
9 42 9 20 0 34 -2 32 -4z m-184 -36 c3 -5 -1 -10 -10 -10 -9 0 -13 5 -10 10 3
6 8 10 10 10 2 0 7 -4 10 -10z m4204 -284 c1 -47 -10 -22 -19 41 -4 32 -13 87
-19 122 -7 35 -9 71 -5 80 7 15 42 -181 43 -243z m-3249 184 c19 -12 6 -16
-78 -25 -35 -3 -70 -9 -78 -12 -20 -8 -7 -23 21 -23 39 0 38 -18 -1 -26 -71
-13 -184 9 -184 35 0 4 26 16 58 26 48 15 93 22 232 33 8 1 22 -2 30 -8z m288
-8 c53 -9 55 -25 5 -33 -21 -3 -31 -7 -22 -8 8 0 24 -8 35 -16 17 -13 13 -14
-49 -15 -62 0 -68 2 -79 25 -13 30 -28 32 -35 5 -5 -20 -15 -25 -75 -36 -43
-7 -48 3 -15 34 12 11 28 28 35 36 14 17 116 21 200 8z m-3527 -67 c-8 -46 -9
-47 -10 -13 -1 34 8 73 15 66 2 -2 -1 -26 -5 -53z m2609 -60 c0 -7 -231 -122
-293 -146 -29 -11 -70 -29 -92 -39 -26 -13 -99 -27 -205 -40 -91 -12 -293 -41
-450 -65 -382 -58 -380 -58 -380 -47 0 14 12 17 478 87 236 35 451 69 477 75
58 13 216 71 305 113 54 25 148 65 158 67 1 0 2 -2 2 -5z m1530 -105 c178 -72
229 -83 865 -180 241 -37 291 -48 279 -60 -5 -4 -49 -2 -99 6 -49 8 -180 27
-290 44 -110 16 -274 41 -365 55 -101 16 -220 27 -305 29 -148 3 -344 23 -366
37 -30 18 5 19 147 4 222 -24 280 -28 274 -23 -3 3 -41 20 -84 37 -106 42
-283 130 -297 148 -7 8 23 -2 67 -22 43 -20 122 -54 174 -75z m-585 54 c48
-23 51 -44 10 -57 -33 -10 -568 -12 -627 -2 -21 4 -40 10 -43 15 -11 18 50 49
125 64 14 2 131 3 260 2 209 -2 239 -4 275 -22z m-2375 -4 c0 -11 -4 -20 -10
-20 -5 0 -10 9 -10 20 0 11 5 20 10 20 6 0 10 -9 10 -20z m-1123 -67 c-3 -10
-5 -4 -5 12 0 17 2 24 5 18 2 -7 2 -21 0 -30z m6440 -5 c-3 -8 -6 -5 -6 6 -1
11 2 17 5 13 3 -3 4 -12 1 -19z m-3857 -37 c0 -5 -15 -11 -32 -15 -63 -12
-342 -36 -360 -30 -35 11 -6 24 55 25 34 0 107 6 162 13 126 16 175 18 175 7z
m438 -33 c9 -9 15 -9 24 0 7 7 39 12 75 12 67 0 75 -8 53 -51 -8 -15 -21 -19
-60 -19 -28 0 -54 6 -62 14 -18 18 -72 29 -98 21 -37 -12 -10 -27 36 -20 28 4
44 2 44 -4 0 -12 -46 -27 -70 -23 -50 8 -60 14 -60 33 0 35 91 64 118 37z
m272 -8 c0 -11 -6 -20 -14 -20 -8 0 -16 -6 -19 -14 -6 -16 -47 -29 -47 -14 0
5 5 18 10 29 9 15 7 19 -7 20 -29 1 16 17 50 18 21 1 27 -4 27 -19z m146 -14
c-2 -14 1 -27 7 -29 7 -2 9 -8 5 -12 -5 -5 -26 -3 -48 4 -21 6 -51 9 -65 5
-26 -7 -28 -3 -19 34 6 20 13 22 65 22 57 0 59 -1 55 -24z m3011 -43 c-3 -10
-5 -2 -5 17 0 19 2 27 5 18 2 -10 2 -26 0 -35z m10 -90 c-3 -10 -5 -4 -5 12 0
17 2 24 5 18 2 -7 2 -21 0 -30z m-3314 -5 c9 -5 17 -18 17 -28 0 -17 -7 -20
-42 -20 -24 0 -53 -3 -65 -6 -21 -6 -23 -3 -23 29 0 19 6 37 13 40 16 6 77 -3
100 -15z m157 -7 c42 -35 36 -46 -15 -32 -25 7 -44 7 -56 1 -25 -14 -49 -12
-43 3 4 12 63 57 74 57 3 0 21 -13 40 -29z m-290 -1 c0 -17 -7 -20 -40 -20
-29 0 -40 -4 -40 -15 0 -18 -26 -20 -33 -2 -2 6 -1 22 4 35 7 19 16 22 59 22
43 0 50 -3 50 -20z m380 -5 c0 -15 5 -25 13 -24 27 3 47 -2 47 -12 0 -6 -19
-9 -47 -7 -49 3 -63 18 -49 54 9 24 36 16 36 -11z m-226 -161 c-2 -51 -14 -64
-56 -64 -25 0 -28 4 -28 31 0 30 -1 31 -40 27 -26 -2 -40 1 -40 8 0 20 29 36
54 30 14 -3 28 -2 31 4 3 5 23 10 43 10 l38 0 -2 -46z m114 19 c2 -13 -1 -23
-7 -23 -6 0 -8 -7 -5 -15 4 -10 0 -15 -15 -15 -12 0 -21 5 -21 10 0 6 -6 10
-14 10 -13 0 -15 21 -7 58 1 2 16 2 34 0 24 -2 33 -8 35 -25z m-3401 -5 c-3
-8 -6 -5 -6 6 -1 11 2 17 5 13 3 -3 4 -12 1 -19z m3367 -89 c96 0 153 -4 140
-9 -17 -7 -460 -7 -474 0 -12 7 89 18 129 14 24 -2 116 -4 205 -5z m3233 -21
c-3 -7 -5 -2 -5 12 0 14 2 19 5 13 2 -7 2 -19 0 -25z m-6611 -448 c-1 -298 -4
-427 -10 -398 -18 83 -11 838 7 838 2 0 3 -198 3 -440z m6622 -100 c-2 -226
-7 -331 -15 -345 -9 -16 -12 74 -12 404 0 234 3 436 7 450 14 52 23 -186 20
-509z m-3359 468 c16 -44 4 -52 -83 -56 -77 -4 -126 13 -126 44 0 8 1 14 3 14
1 0 20 7 42 15 22 8 65 14 97 15 54 0 56 -1 67 -32z m223 5 c15 -16 16 -22 6
-35 -10 -12 -35 -17 -110 -20 -62 -2 -97 1 -95 7 1 6 5 9 10 7 4 -1 5 9 1 22
-9 36 18 48 100 42 49 -4 75 -11 88 -23z m-1067 7 c-3 -5 -17 -10 -31 -10 -13
0 -24 5 -24 10 0 6 14 10 31 10 17 0 28 -4 24 -10z m-1286 -62 c-1 -72 -5 -68
-12 10 -2 28 0 52 4 52 5 0 9 -28 8 -62z m1220 57 c-8 -7 -78 -9 -85 -2 -4 4
14 7 41 7 27 0 46 -2 44 -5z m-141 -16 c22 -2 -54 -12 -318 -43 -118 -14 -268
-32 -334 -41 -65 -9 -130 -15 -145 -13 -25 3 199 35 574 83 99 12 186 21 193
19 8 -2 21 -5 30 -5z m2253 1 c100 -13 133 -19 127 -25 -3 -3 -42 0 -89 6 -46
6 -94 12 -107 14 -23 2 -44 15 -25 15 5 0 48 -5 94 -10z m418 -56 c96 -14 177
-27 180 -30 7 -7 -96 3 -179 16 -30 5 -96 14 -147 20 -50 5 -102 14 -115 19
-31 13 38 6 261 -25z m286 -43 c26 -6 31 -9 15 -9 -14 -1 -43 3 -65 7 -26 6
-31 9 -15 9 14 1 43 -3 65 -7z m-1775 -27 c12 -12 9 -14 -25 -15 l-40 0 35
-12 c23 -8 36 -19 38 -34 4 -30 -52 -47 -150 -46 -75 1 -118 14 -118 34 0 10
28 8 120 -6 8 -1 26 1 40 6 18 5 7 7 -37 8 -34 1 -73 5 -87 11 -28 10 -35 40
-13 58 28 23 211 20 237 -4z m-1055 -107 c11 -8 56 -33 99 -56 44 -24 88 -54
98 -67 37 -46 104 -105 171 -150 37 -24 67 -49 67 -56 0 -7 -16 -9 -47 -5 -33
3 -96 30 -201 83 -84 44 -159 86 -167 94 -7 8 -23 44 -34 79 -30 92 -28 106
14 78z m1916 -44 c-39 -127 -34 -121 -189 -196 -77 -38 -168 -75 -203 -83
-100 -23 -95 -12 39 90 53 41 117 93 141 116 36 34 197 128 223 129 3 1 -2
-25 -11 -56z m-2307 -61 c91 -42 247 -152 344 -245 23 -23 42 -45 42 -49 0 -4
-19 6 -42 21 -125 84 -225 124 -344 136 -91 10 -384 -13 -901 -70 -73 -8 -223
-19 -335 -25 -112 -5 -254 -12 -315 -15 -75 -3 -113 -2 -113 5 0 6 6 25 14 43
l13 33 119 17 c127 18 385 56 729 107 400 61 476 69 610 67 110 -2 137 -6 179
-25z m3096 8 c204 -27 492 -68 575 -80 39 -6 140 -22 225 -35 85 -13 218 -31
294 -42 l139 -18 14 -32 c23 -56 26 -55 -139 -48 -194 8 -524 31 -648 45 -52
6 -140 15 -195 20 -55 5 -170 16 -255 24 -275 26 -425 30 -510 12 -78 -17
-192 -66 -271 -117 -66 -42 -70 -36 -10 19 130 116 276 210 395 253 68 25 200
24 386 -1z m-3028 -208 c9 -4 -58 -8 -150 -9 -92 -2 -219 -7 -282 -12 -143
-12 -354 -21 -320 -14 114 24 709 52 752 35z m3035 -12 c148 -11 275 -22 283
-25 19 -6 -131 1 -445 20 -137 9 -277 14 -310 11 -42 -3 -51 -2 -30 3 53 15
227 12 502 -9z m-2913 -85 c65 -18 190 -74 182 -82 -2 -3 -35 7 -73 22 -139
56 -205 60 -608 41 -295 -14 -451 -15 -865 -9 -385 6 -483 9 -410 16 52 5 250
6 439 3 329 -4 710 5 926 24 140 12 338 4 409 -15z m2761 9 c161 -10 429 -16
818 -18 337 -1 581 -6 587 -12 14 -14 -1110 -11 -1436 5 -322 15 -401 9 -534
-38 -46 -16 -86 -28 -89 -26 -7 8 128 64 191 79 116 28 165 29 463 10z m-3865
-115 c193 -12 542 -6 710 11 52 5 160 9 240 9 116 0 156 -4 200 -19 43 -16 48
-19 20 -15 -119 15 -211 15 -425 1 -409 -26 -455 -27 -635 -16 -173 10 -346
32 -359 46 -3 3 10 4 29 1 19 -4 118 -11 220 -18z m3940 1 c152 -11 455 -9
660 5 l75 5 -66 -14 c-37 -8 -156 -19 -265 -25 -198 -11 -264 -9 -664 20 -150
10 -241 9 -355 -6 -38 -5 -39 -5 -10 6 17 6 46 15 65 19 45 11 347 6 560 -10z
m-2610 -84 l55 -15 -90 5 c-49 3 -193 -2 -320 -11 -447 -30 -522 -30 -255 0
80 10 197 23 260 31 132 15 270 11 350 -10z m2175 8 c211 -25 246 -34 100 -26
-71 4 -194 7 -273 7 -87 0 -141 4 -139 10 10 28 130 31 312 9z m-3379 -372
c-11 -10 -37 -11 -30 -1 3 5 10 6 16 3 6 -4 8 -1 6 7 -3 8 -10 13 -16 12 -6
-2 -9 4 -5 13 4 12 8 11 20 -6 8 -12 12 -24 9 -28z m584 44 c0 -2 -7 -7 -16
-10 -8 -3 -12 -2 -9 4 6 10 25 14 25 6z m-634 -35 c-7 -11 -76 -52 -76 -46 0
4 70 53 78 54 2 1 1 -3 -2 -8z m3571 -7 c-3 -3 -12 -4 -19 -1 -8 3 -5 6 6 6
11 1 17 -2 13 -5z m-120 -10 c-3 -3 -12 -4 -19 -1 -8 3 -5 6 6 6 11 1 17 -2
13 -5z m-2273 -11 c5 -5 27 -8 49 -9 106 -1 142 -5 121 -14 -49 -19 -164 -10
-185 16 -12 14 2 20 15 7z m2019 -20 c-7 -2 -19 -2 -25 0 -7 3 -2 5 12 5 14 0
19 -2 13 -5z m-2025 -20 c-10 -2 -28 -2 -40 0 -13 2 -5 4 17 4 22 1 32 -1 23
-4z m-405 -10 c-7 -2 -19 -2 -25 0 -7 3 -2 5 12 5 14 0 19 -2 13 -5z m2994 1
c-3 -3 -12 -4 -19 -1 -8 3 -5 6 6 6 11 1 17 -2 13 -5z"/>
<path d="M4783 4735 c0 -8 4 -12 9 -9 4 3 8 9 8 15 0 5 -4 9 -8 9 -5 0 -9 -7
-9 -15z"/>
<path d="M5640 4723 c0 -21 3 -24 9 -14 5 8 7 20 4 28 -8 21 -13 15 -13 -14z"/>
<path d="M4785 4651 c-3 -5 -2 -12 3 -15 5 -3 9 1 9 9 0 17 -3 19 -12 6z"/>
<path d="M5620 4145 c0 -8 2 -15 4 -15 2 0 6 7 10 15 3 8 1 15 -4 15 -6 0 -10
-7 -10 -15z"/>
<path d="M3009 4038 c-3 -22 -1 -34 4 -29 5 5 7 21 5 37 -3 27 -4 26 -9 -8z"/>
<path d="M5058 4111 c-56 -6 -89 -23 -74 -38 13 -13 200 -15 246 -3 36 10 41
14 29 25 -17 16 -124 24 -201 16z"/>
<path d="M4874 4089 c-3 -6 -1 -16 5 -22 8 -8 11 -5 11 11 0 24 -5 28 -16 11z"/>
<path d="M5340 4075 c0 -9 6 -12 15 -9 8 4 12 10 9 15 -8 14 -24 10 -24 -6z"/>
<path d="M5000 3941 c-12 -9 -12 -11 2 -16 23 -9 83 -2 83 10 0 13 -66 18 -85
6z"/>
<path d="M4995 3770 c-4 -6 7 -10 25 -10 18 0 29 4 25 10 -3 6 -15 10 -25 10
-10 0 -22 -4 -25 -10z"/>
<path d="M4917 3444 c-13 -13 5 -24 39 -24 24 0 34 5 34 15 0 10 -10 15 -33
15 -19 0 -37 -3 -40 -6z"/>
<path d="M5172 3438 c3 -7 15 -14 29 -16 24 -4 24 -3 4 12 -24 19 -38 20 -33
4z"/>
<path d="M5045 3300 c-26 -7 -24 -8 20 -9 36 0 46 2 35 9 -8 5 -17 9 -20 9 -3
-1 -18 -5 -35 -9z"/>
<path d="M8670 2345 l-45 -46 100 6 c123 7 295 25 315 32 33 11 -57 28 -265
48 l-60 5 -45 -45z"/>
<path d="M1911 2083 c0 -5 4 -17 9 -28 7 -17 9 -17 9 -2 1 9 7 17 14 17 8 0 7
4 -3 10 -18 12 -30 13 -29 3z"/>
<path d="M2208 2053 c23 -2 59 -2 80 0 20 2 1 4 -43 4 -44 0 -61 -2 -37 -4z"/>
<path d="M3028 2053 c7 -3 16 -2 19 1 4 3 -2 6 -13 5 -11 0 -14 -3 -6 -6z"/>
<path d="M7408 2053 c6 -2 18 -2 25 0 6 3 1 5 -13 5 -14 0 -19 -2 -12 -5z"/>
<path d="M8173 2053 c9 -2 25 -2 35 0 9 3 1 5 -18 5 -19 0 -27 -2 -17 -5z"/>
<path d="M6938 2043 c7 -3 16 -2 19 1 4 3 -2 6 -13 5 -11 0 -14 -3 -6 -6z"/>
<path d="M1941 2030 c0 -25 25 -64 33 -51 4 6 12 8 18 5 7 -4 8 -2 4 5 -4 6
-11 9 -16 6 -5 -3 -16 7 -24 22 -8 15 -15 21 -15 13z"/>
<path d="M8325 2017 c-4 -14 -12 -24 -18 -23 -7 2 -9 1 -4 -1 4 -3 7 -12 8
-21 0 -9 7 1 15 22 8 22 12 41 10 44 -3 2 -8 -7 -11 -21z"/>
<path d="M1975 2020 c3 -5 8 -10 11 -10 2 0 4 5 4 10 0 6 -5 10 -11 10 -5 0
-7 -4 -4 -10z"/>
<path d="M7888 2023 c6 -2 18 -2 25 0 6 3 1 5 -13 5 -14 0 -19 -2 -12 -5z"/>
<path d="M8174 1975 c8 -8 17 -15 20 -15 3 0 6 7 6 15 0 9 -9 15 -21 15 -18 0
-19 -2 -5 -15z"/>
<path d="M1976 1962 c-3 -6 -1 -14 5 -17 14 -9 20 -2 10 14 -6 8 -11 9 -15 3z"/>
<path d="M4968 1953 c6 -2 18 -2 25 0 6 3 1 5 -13 5 -14 0 -19 -2 -12 -5z"/>
<path d="M8249 1948 c-1 -7 -2 -28 -4 -45 -1 -18 -1 -33 1 -33 9 0 56 81 51
87 -4 3 -11 -6 -16 -21 -6 -14 -15 -26 -21 -26 -13 0 -13 13 1 27 8 8 8 13 0
17 -6 4 -11 1 -12 -6z"/>
<path d="M2025 1908 c-4 -9 -2 -25 5 -35 9 -16 10 -15 5 7 -6 25 -6 25 18 -4
l25 -29 -2 31 c-1 17 -5 34 -9 39 -5 4 -5 0 -1 -10 8 -22 -5 -22 -22 1 -12 16
-13 16 -19 0z"/>
<path d="M7958 1912 c-25 -2 -38 -8 -38 -18 0 -10 -12 -14 -40 -14 -33 0 -40
-3 -40 -20 0 -18 -7 -20 -80 -20 -73 0 -80 -2 -80 -20 0 -17 -7 -20 -40 -20
l-40 0 0 -40 0 -40 -40 0 c-33 0 -40 3 -40 20 0 18 -7 20 -80 20 l-80 0 0 -40
0 -40 -40 0 -40 0 0 40 0 40 -40 0 -40 0 0 -40 0 -40 -40 0 -40 0 0 -40 0 -40
-40 0 -40 0 0 40 0 40 -80 0 c-73 0 -80 2 -80 20 0 18 -7 20 -80 20 -73 0 -80
-2 -80 -20 0 -17 -7 -20 -40 -20 l-40 0 0 -40 0 -40 -40 0 -40 0 0 40 0 40
-40 0 -40 0 0 -40 0 -40 -40 0 -40 0 0 40 0 40 -40 0 c-33 0 -40 -3 -40 -20 0
-20 -7 -20 -440 -20 -433 0 -440 0 -440 -20 0 -19 7 -20 160 -20 l160 0 0 -40
0 -40 40 0 c33 0 40 -3 40 -20 0 -18 -7 -20 -80 -20 -73 0 -80 -2 -80 -20 0
-17 -7 -20 -40 -20 -22 0 -40 5 -40 10 0 6 -18 10 -40 10 -22 0 -40 5 -40 10
0 6 -18 10 -40 10 l-39 0 -3 58 -3 57 -35 0 c-33 0 -35 -2 -38 -37 -3 -36 -5
-38 -37 -38 -32 0 -34 2 -37 38 -3 37 -3 37 -48 37 -43 0 -45 -1 -48 -31 -3
-29 -6 -32 -49 -38 -25 -3 -59 -6 -74 -6 -22 0 -29 -5 -29 -20 0 -17 -7 -20
-40 -20 -22 0 -40 -4 -40 -10 0 -5 -16 -10 -35 -10 -30 0 -35 3 -35 24 0 21 6
25 33 28 30 3 32 6 35 46 l3 43 -43 -3 c-40 -3 -43 -5 -46 -35 -3 -28 -7 -32
-35 -35 -24 -2 -33 -8 -35 -25 -3 -22 -7 -23 -118 -23 -92 0 -114 3 -114 14 0
9 12 16 33 18 30 3 32 6 35 46 l3 43 -43 -3 c-40 -3 -43 -5 -46 -35 -3 -28 -7
-32 -35 -35 -23 -2 -33 -9 -38 -28 -4 -14 -5 2 -2 35 3 33 8 62 10 65 2 3 74
4 159 3 130 -2 154 0 154 12 0 13 -30 15 -198 15 -110 0 -254 3 -320 7 -120 6
-122 6 -122 -15 0 -21 5 -22 80 -22 l80 0 0 -60 0 -60 -120 0 c-113 0 -120 1
-120 20 0 18 -7 20 -80 20 l-80 0 0 40 0 40 -40 0 -40 0 0 -60 0 -60 -40 0
c-33 0 -40 3 -40 20 0 17 -7 20 -40 20 -33 0 -40 3 -40 20 0 17 -7 20 -40 20
l-40 0 0 40 0 40 40 0 c33 0 40 3 40 20 0 17 -7 20 -40 20 -33 0 -40 3 -40 20
0 19 -7 20 -200 20 -193 0 -200 1 -200 20 0 19 -7 20 -160 20 l-160 0 0 -80 0
-80 -40 0 c-33 0 -40 3 -40 20 0 19 -7 20 -100 20 -93 0 -100 1 -100 20 0 18
-7 20 -60 20 -53 0 -60 2 -60 20 0 17 -7 20 -40 20 l-40 0 0 40 0 40 -40 0
-40 0 0 -40 c0 -28 -4 -40 -14 -40 -8 0 -18 5 -21 10 -3 6 -17 7 -30 4 -12 -3
-26 -1 -29 5 -10 15 -23 14 -23 -3 0 -7 7 -13 16 -12 9 1 16 -8 17 -21 1 -14
-3 -20 -12 -16 -17 6 -18 20 -1 27 6 3 -1 2 -18 -1 -27 -6 -29 -5 -16 10 11
14 11 17 0 17 -10 0 -11 3 -3 8 9 5 9 10 -1 19 -7 7 -17 8 -26 2 -8 -5 -18 -9
-24 -9 -5 0 -4 4 4 9 8 5 15 22 16 38 1 24 -3 29 -22 31 -13 1 -26 -5 -29 -13
-4 -8 -11 -15 -16 -15 -6 0 -7 8 -3 18 5 14 4 15 -6 5 -9 -9 -10 -16 -3 -23
13 -13 44 -3 44 14 0 6 4 5 9 -3 10 -16 4 -41 -11 -41 -5 0 -6 5 -2 12 4 7 3
8 -4 4 -17 -10 -3 -32 57 -89 28 -26 56 -45 61 -42 6 4 7 -1 3 -12 -3 -10 -3
-15 1 -12 4 4 22 -7 39 -23 18 -16 51 -43 73 -58 l41 -29 -2 29 c-1 16 1 27 6
25 4 -3 6 -14 4 -24 -4 -24 2 -32 60 -68 69 -44 143 -75 157 -67 7 5 8 3 3 -6
-5 -8 -3 -11 6 -8 8 3 20 -2 28 -9 8 -8 22 -12 33 -10 10 3 16 1 13 -3 -3 -5
3 -9 12 -9 10 0 45 -9 77 -21 35 -13 70 -19 85 -15 17 3 21 2 13 -3 -18 -12
77 -30 198 -37 194 -11 2286 -15 2270 -4 -11 8 -9 9 10 3 43 -12 1743 -7 1870
6 127 12 378 70 390 90 4 7 13 9 19 6 6 -4 11 -3 11 2 0 5 14 12 30 16 70 14
167 76 119 76 -6 0 -7 -4 -4 -10 4 -6 -1 -7 -11 -3 -11 4 -15 3 -10 -5 3 -6 2
-13 -3 -16 -10 -7 -9 20 2 30 12 12 67 12 60 0 -4 -6 9 1 29 17 20 15 40 27
43 27 9 0 85 59 103 80 12 13 13 13 6 0 -4 -8 12 3 34 24 23 22 38 44 35 49
-3 6 -1 7 4 4 13 -8 47 29 38 42 -3 6 0 9 8 6 7 -3 26 10 43 32 40 51 53 75
19 38 -20 -22 -25 -25 -20 -10 8 24 8 24 6 53 0 13 -5 20 -11 17 -6 -4 -10
-29 -9 -56 2 -27 -1 -52 -4 -56 -12 -11 -50 -11 -75 0 -18 8 -26 8 -33 -4 -12
-19 -11 -29 1 -29 6 0 9 5 8 11 -2 6 3 14 10 16 6 3 12 0 12 -7 0 -6 4 -9 9
-5 6 3 9 -3 8 -13 -1 -14 -7 -17 -25 -14 -17 3 -23 1 -18 -7 4 -6 2 -11 -4
-11 -7 0 -10 -6 -7 -12 2 -7 10 -12 16 -10 7 1 10 -2 6 -8 -4 -7 -13 -7 -26 1
-12 6 -23 8 -27 5 -3 -3 0 -6 6 -6 16 0 15 -17 0 -23 -8 -3 -14 6 -16 22 -5
56 -7 66 -17 74 -6 4 -5 10 3 15 9 6 12 30 10 83 l-3 74 -37 -3z m-5643 -250
c8 -21 5 -21 -34 -2 l-33 17 30 0 c18 0 34 -7 37 -15z m5445 -2 c0 -17 -7 -20
-40 -20 -33 0 -40 3 -40 20 0 17 7 20 40 20 33 0 40 -3 40 -20z m290 -4 c0 -2
-8 -10 -17 -17 -16 -13 -17 -12 -4 4 13 16 21 21 21 13z m-1789 -56 l139 0 0
-40 0 -40 40 0 c33 0 40 -3 40 -20 0 -19 -7 -20 -200 -20 l-200 0 0 60 0 60
-41 0 c-32 0 -42 -4 -46 -20 -8 -29 -73 -29 -73 -1 0 23 47 31 144 25 32 -2
121 -4 197 -4z m1688 -11 c-7 -4 -17 -5 -21 -3 -4 3 -5 -2 -2 -10 4 -11 0 -16
-10 -16 -21 0 -33 29 -17 39 7 5 24 6 38 3 17 -3 21 -7 12 -13z m-5579 7 c0
-2 -7 -7 -16 -10 -8 -3 -12 -2 -9 4 6 10 25 14 25 6z m117 -91 c0 -8 -4 -15
-9 -15 -10 0 -11 14 -1 23 9 10 10 9 10 -8z m3430 -17 c-3 -7 -5 -2 -5 12 0
14 2 19 5 13 2 -7 2 -19 0 -25z m803 12 c0 -17 -7 -20 -40 -20 -33 0 -40 3
-40 20 0 17 7 20 40 20 33 0 40 -3 40 -20z m1055 12 c-2 -2 -19 -7 -39 -12
-24 -5 -39 -4 -45 4 -8 10 1 12 38 12 27 -1 48 -3 46 -4z m-5235 -42 c0 -5 -4
-10 -9 -10 -6 0 -13 5 -16 10 -3 6 1 10 9 10 9 0 16 -4 16 -10z m5210 6 c0 -2
-7 -6 -15 -10 -8 -3 -15 -1 -15 4 0 6 7 10 15 10 8 0 15 -2 15 -4z m-145 -67
c-4 -5 -12 -9 -18 -8 -9 0 -8 2 1 6 6 2 9 10 6 15 -4 7 -2 8 5 4 6 -4 9 -12 6
-17z m-38 5 c-3 -3 -12 -4 -19 -1 -8 3 -5 6 6 6 11 1 17 -2 13 -5z m-4827 -14
c13 -8 13 -10 -2 -10 -9 0 -20 5 -23 10 -8 13 5 13 25 0z m260 -44 c0 -2 -11
-6 -25 -8 -13 -3 -22 -1 -19 3 5 9 44 13 44 5z m1463 -3 c-13 -2 -33 -2 -45 0
-13 2 -3 4 22 4 25 0 35 -2 23 -4z m-1190 -10 c-7 -2 -19 -2 -25 0 -7 3 -2 5
12 5 14 0 19 -2 13 -5z m1360 0 c-13 -2 -35 -2 -50 0 -16 2 -5 4 22 4 28 0 40
-2 28 -4z m390 0 c-13 -2 -33 -2 -45 0 -13 2 -3 4 22 4 25 0 35 -2 23 -4z
m-1210 -10 c-18 -2 -48 -2 -65 0 -18 2 -4 4 32 4 36 0 50 -2 33 -4z m1435 -10
c-10 -2 -26 -2 -35 0 -10 3 -2 5 17 5 19 0 27 -2 18 -5z m-1760 -10 c-10 -2
-26 -2 -35 0 -10 3 -2 5 17 5 19 0 27 -2 18 -5z m940 0 c-21 -2 -55 -2 -75 0
-21 2 -4 4 37 4 41 0 58 -2 38 -4z m430 -10 c-16 -2 -40 -2 -55 0 -16 2 -3 4
27 4 30 0 43 -2 28 -4z m1925 0 c-13 -2 -33 -2 -45 0 -13 2 -3 4 22 4 25 0 35
-2 23 -4z"/>
<path d="M8186 1903 c-6 -14 -5 -15 5 -6 7 7 10 15 7 18 -3 3 -9 -2 -12 -12z"/>
<path d="M2640 1800 l0 -40 40 0 40 0 0 40 0 40 -40 0 -40 0 0 -40z"/>
<path d="M2197 1812 c1 -8 3 -22 3 -32 0 -10 9 -20 20 -23 17 -4 20 0 20 24 0
22 -5 29 -19 29 -11 0 -21 3 -24 8 -2 4 -2 1 0 -6z"/>
</g>
</svg>
